{
  "accessors": [
    {
      "bufferView": 2,
      "componentType": 5126,
      "count": 65532,
      "max": [
        0.10149997472763062,
        0.11495865136384964,
        0.1055414080619812
      ],
      "min": [
        -0.11998125910758972,
        -0.10844840109348297,
        -4.470348358154297e-07
      ],
      "type": "VEC3"
    },
    {
      "bufferView": 2,
      "byteOffset": 786384,
      "componentType": 5126,
      "count": 65532,
      "max": [
        0.9975297451019287,
        0.9999994039535522,
        0.999998152256012
      ],
      "min": [
        -0.9999538660049438,
        -0.9998540282249451,
        -1.0
      ],
      "type": "VEC3"
    },
    {
      "bufferView": 1,
      "componentType": 5126,
      "count": 65532,
      "max": [
        0.9994398355484009,
        0.8881834745407104
      ],
      "min": [
        0.00048828125,
        0.000497539178468287
      ],
      "type": "VEC2"
    },
    {
      "bufferView": 1,
      "byteOffset": 524256,
      "componentType": 5126,
      "count": 65532,
      "max": [
        0.9994398355484009,
        0.8881834745407104
      ],
      "min": [
        0.00048828125,
        0.000497539178468287
      ],
      "type": "VEC2"
    },
    {
      "bufferView": 0,
      "componentType": 5125,
      "count": 289980,
      "type": "SCALAR"
    },
    {
      "bufferView": 2,
      "byteOffset": 1572768,
      "componentType": 5126,
      "count": 65532,
      "max": [
        0.05186387896537781,
        0.11514883488416672,
        0.102457195520401
      ],
      "min": [
        -0.12049394845962524,
        -0.11036351323127747,
        0.0
      ],
      "type": "VEC3"
    },
    {
      "bufferView": 2,
      "byteOffset": 2359152,
      "componentType": 5126,
      "count": 65532,
      "max": [
        0.9997601509094238,
        0.9999603629112244,
        0.999998152256012
      ],
      "min": [
        -0.9999914169311523,
        -0.9999989867210388,
        -0.9999447464942932
      ],
      "type": "VEC3"
    },
    {
      "bufferView": 1,
      "byteOffset": 1048512,
      "componentType": 5126,
      "count": 65532,
      "max": [
        0.9994701147079468,
        0.9272459745407104
      ],
      "min": [
        0.00048828125,
        0.0004915787139907479
      ],
      "type": "VEC2"
    },
    {
      "bufferView": 1,
      "byteOffset": 1572768,
      "componentType": 5126,
      "count": 65532,
      "max": [
        0.9994701147079468,
        0.9272459745407104
      ],
      "min": [
        0.00048828125,
        0.0004915787139907479
      ],
      "type": "VEC2"
    },
    {
      "bufferView": 0,
      "byteOffset": 1159920,
      "componentType": 5125,
      "count": 275892,
      "type": "SCALAR"
    },
    {
      "bufferView": 2,
      "byteOffset": 3145536,
      "componentType": 5126,
      "count": 65532,
      "max": [
        0.10579130053520203,
        0.11432409286499023,
        0.10289108753204346
      ],
      "min": [
        -0.11484074592590332,
        -0.111735999584198,
        -4.470348358154297e-07
      ],
      "type": "VEC3"
    },
    {
      "bufferView": 2,
      "byteOffset": 3931920,
      "componentType": 5126,
      "count": 65532,
      "max": [
        0.9999251365661621,
        0.9999638795852661,
        0.9999969005584717
      ],
      "min": [
        -0.9992619752883911,
        -0.999925434589386,
        -0.9999994039535522
      ],
      "type": "VEC3"
    },
    {
      "bufferView": 1,
      "byteOffset": 2097024,
      "componentType": 5126,
      "count": 65532,
      "max": [
        0.99951171875,
        0.9819334745407104
      ],
      "min": [
        0.00048828125,
        0.0004884196678176522
      ],
      "type": "VEC2"
    },
    {
      "bufferView": 1,
      "byteOffset": 2621280,
      "componentType": 5126,
      "count": 65532,
      "max": [
        0.99951171875,
        0.9819334745407104
      ],
      "min": [
        0.00048828125,
        0.0004884196678176522
      ],
      "type": "VEC2"
    },
    {
      "bufferView": 0,
      "byteOffset": 2263488,
      "componentType": 5125,
      "count": 263850,
      "type": "SCALAR"
    },
    {
      "bufferView": 2,
      "byteOffset": 4718304,
      "componentType": 5126,
      "count": 61612,
      "max": [
        0.10615381598472595,
        0.07850828766822815,
        0.10467737913131714
      ],
      "min": [
        -0.11926189064979553,
        -0.11133997142314911,
        0.0
      ],
      "type": "VEC3"
    },
    {
      "bufferView": 2,
      "byteOffset": 5457648,
      "componentType": 5126,
      "count": 61612,
      "max": [
        0.9998856782913208,
        0.9994199275970459,
        0.9999979138374329
      ],
      "min": [
        -0.9994357824325562,
        -0.9999645948410034,
        -0.9999793767929077
      ],
      "type": "VEC3"
    },
    {
      "bufferView": 1,
      "byteOffset": 3145536,
      "componentType": 5126,
      "count": 61612,
      "max": [
        0.9994893074035645,
        0.896661102771759
      ],
      "min": [
        0.00048828125,
        0.0004939628997817636
      ],
      "type": "VEC2"
    },
    {
      "bufferView": 1,
      "byteOffset": 3638432,
      "componentType": 5126,
      "count": 61612,
      "max": [
        0.9994893074035645,
        0.896661102771759
      ],
      "min": [
        0.00048828125,
        0.0004939628997817636
      ],
      "type": "VEC2"
    },
    {
      "bufferView": 0,
      "byteOffset": 3318888,
      "componentType": 5125,
      "count": 244956,
      "type": "SCALAR"
    }
  ],
  "asset": {
    "extras": {
      "author": "M Parkinson (https://sketchfab.com/chimaera_studio)",
      "license": "CC-BY-4.0 (http://creativecommons.org/licenses/by/4.0/)",
      "source": "https://sketchfab.com/3d-models/strawberry-angel-food-cake-5c62c451f80b48a2adeba7f90030923d",
      "title": "Strawberry Angel Food Cake"
    },
    "generator": "Sketchfab-15.30.0",
    "version": "2.0"
  },
  "bufferViews": [
    {
      "buffer": 0,
      "byteLength": 4298712,
      "name": "floatBufferViews",
      "target": 34963
    },
    {
      "buffer": 0,
      "byteLength": 4131328,
      "byteOffset": 4298712,
      "byteStride": 8,
      "name": "floatBufferViews",
      "target": 34962
    },
    {
      "buffer": 0,
      "byteLength": 6196992,
      "byteOffset": 8430040,
      "byteStride": 12,
      "name": "floatBufferViews",
      "target": 34962
    }
  ],
  "buffers": [
    {
      "byteLength": 14627032,
      "uri": "scene.bin"
    }
  ],
  "extensionsUsed": [
    "KHR_materials_unlit"
  ],
  "images": [
    {
      "uri": "textures/tex_u1_v1_baseColor.jpeg"
    }
  ],
  "materials": [
    {
      "doubleSided": true,
      "extensions": {
        "KHR_materials_unlit": {}
      },
      "name": "tex_u1_v1",
      "pbrMetallicRoughness": {
        "baseColorTexture": {
          "index": 0
        },
        "metallicFactor": 0.0
      }
    }
  ],
  "meshes": [
    {
      "name": "model_tex_u1_v1_0",
      "primitives": [
        {
          "attributes": {
            "NORMAL": 1,
            "POSITION": 0,
            "TEXCOORD_0": 2,
            "TEXCOORD_1": 3
          },
          "indices": 4,
          "material": 0,
          "mode": 4
        }
      ]
    },
    {
      "name": "model_tex_u1_v1_0",
      "primitives": [
        {
          "attributes": {
            "NORMAL": 6,
            "POSITION": 5,
            "TEXCOORD_0": 7,
            "TEXCOORD_1": 8
          },
          "indices": 9,
          "material": 0,
          "mode": 4
        }
      ]
    },
    {
      "name": "model_tex_u1_v1_0",
      "primitives": [
        {
          "attributes": {
            "NORMAL": 11,
            "POSITION": 10,
            "TEXCOORD_0": 12,
            "TEXCOORD_1": 13
          },
          "indices": 14,
          "material": 0,
          "mode": 4
        }
      ]
    },
    {
      "name": "model_tex_u1_v1_0",
      "primitives": [
        {
          "attributes": {
            "NORMAL": 16,
            "POSITION": 15,
            "TEXCOORD_0": 17,
            "TEXCOORD_1": 18
          },
          "indices": 19,
          "material": 0,
          "mode": 4
        }
      ]
    }
  ],
  "nodes": [
    {
      "children": [
        1
      ],
      "matrix": [
        1.0,
        0.0,
        0.0,
        0.0,
        0.0,
        2.220446049250313e-16,
        -1.0,
        0.0,
        0.0,
        1.0,
        2.220446049250313e-16,
        0.0,
        0.0,
        0.0,
        0.0,
        1.0
      ],
      "name": "Sketchfab_model"
    },
    {
      "children": [
        2
      ],
      "matrix": [
        1.0,
        0.0,
        0.0,
        0.0,
        0.0,
        0.0,
        1.0,
        0.0,
        0.0,
        -1.0,
        0.0,
        0.0,
        0.0,
        0.0,
        0.0,
        1.0
      ],
      "name": "model.fbx"
    },
    {
      "children": [
        3
      ],
      "name": "RootNode"
    },
    {
      "children": [
        4,
        5,
        6,
        7
      ],
      "matrix": [
        1.0,
        0.0,
        0.0,
        0.0,
        0.0,
        2.220446049250313e-16,
        -1.0,
        0.0,
        0.0,
        1.0,
        2.220446049250313e-16,
        0.0,
        0.0,
        0.0,
        0.0,
        1.0
      ],
      "name": "model"
    },
    {
      "mesh": 0,
      "name": "model_tex_u1_v1_0"
    },
    {
      "mesh": 1,
      "name": "model_tex_u1_v1_0"
    },
    {
      "mesh": 2,
      "name": "model_tex_u1_v1_0"
    },
    {
      "mesh": 3,
      "name": "model_tex_u1_v1_0"
    }
  ],
  "samplers": [
    {
      "magFilter": 9729,
      "minFilter": 9987,
      "wrapS": 10497,
      "wrapT": 10497
    }
  ],
  "scene": 0,
  "scenes": [
    {
      "name": "Sketchfab_Scene",
      "nodes": [
        0
      ]
    }
  ],
  "textures": [
    {
      "sampler": 0,
      "source": 0
    }
  ]
}
